<svg width="2153" height="1568" viewBox="0 0 2153 1568" fill="none" xmlns="http://www.w3.org/2000/svg">
<mask id="mask0_132_90" style="mask-type:alpha" maskUnits="userSpaceOnUse" x="30" y="274" width="2058" height="1025">
<path d="M1877.04 1029.89L1957.29 1098.55L2047.39 1043.45L2006.88 1140.99L2087.13 1209.66L1981.85 1201.28L1941.34 1298.82L1916.78 1196.1L1811.49 1187.71L1901.6 1132.61L1877.04 1029.89Z" fill="#D9D9D9"/>
<path d="M456.791 761.623L498.512 797.163L545.585 768.375L524.297 819.127L566.018 854.666L511.14 850.494L489.852 901.246L477.224 847.915L422.346 843.743L469.419 814.955L456.791 761.623Z" fill="#D9D9D9"/>
<path d="M242.791 736.623L284.512 772.163L331.585 743.375L310.297 794.127L352.018 829.666L297.14 825.494L275.852 876.246L263.224 822.915L208.346 818.743L255.419 789.955L242.791 736.623Z" fill="#D9D9D9"/>
<path d="M915.791 841.623L957.512 877.163L1004.59 848.375L983.297 899.127L1025.02 934.666L970.14 930.494L948.852 981.246L936.224 927.915L881.346 923.743L928.419 894.955L915.791 841.623Z" fill="#D9D9D9"/>
<path d="M683.197 777.003L754.801 837.998L835.59 788.59L799.055 875.694L870.659 936.689L776.474 929.528L739.939 1016.63L718.265 925.102L624.081 917.941L704.87 868.533L683.197 777.003Z" fill="#D9D9D9"/>
<path d="M1373.74 848.01L1356.95 940.56L1440.25 985.613L1346.58 997.76L1329.79 1090.31L1288.69 1005.27L1195.01 1017.41L1263.28 952.707L1222.18 867.663L1305.47 912.716L1373.74 848.01Z" fill="#D9D9D9"/>
<path d="M1147.73 926.042L1144.29 1020.04L1233.16 1052.77L1142.17 1078.13L1138.74 1172.13L1085.94 1093.81L994.957 1119.18L1053.31 1045.41L1000.51 967.09L1089.37 999.815L1147.73 926.042Z" fill="#D9D9D9"/>
<path d="M1554.2 949.003L1625.8 1010L1706.59 960.59L1670.05 1047.69L1741.66 1108.69L1647.47 1101.53L1610.94 1188.63L1589.27 1097.1L1495.08 1089.94L1575.87 1040.53L1554.2 949.003Z" fill="#D9D9D9"/>
<path d="M1758.66 1137.65L1795.14 1168.72L1836.3 1143.55L1817.69 1187.93L1854.17 1219.01L1806.18 1215.36L1787.57 1259.74L1776.52 1213.1L1728.54 1209.46L1769.7 1184.28L1758.66 1137.65Z" fill="#D9D9D9"/>
<path d="M620.517 620.62L713.844 681.159L846.45 600.062L771.522 718.574L864.849 779.112L725.215 791.818L650.287 910.329L638.916 799.67L499.282 812.376L631.888 731.279L620.517 620.62Z" fill="#D9D9D9"/>
<path d="M1218.18 738.073L1298.43 806.739L1388.53 751.635L1348.03 849.177L1428.28 917.842L1322.99 909.461L1282.49 1007L1257.92 904.28L1152.64 895.899L1242.74 840.795L1218.18 738.073Z" fill="#D9D9D9"/>
<path d="M1078.74 702.422L1158.99 771.087L1249.1 715.984L1208.59 813.525L1288.84 882.191L1183.56 873.809L1143.05 971.35L1118.49 868.629L1013.2 860.247L1103.31 805.143L1078.74 702.422Z" fill="#D9D9D9"/>
<path d="M1467.87 818.063L1487.95 921.754L1592.77 934.7L1500.36 985.839L1520.44 1089.53L1443.24 1017.44L1350.83 1068.58L1395.53 972.893L1318.34 900.807L1423.16 913.753L1467.87 818.063Z" fill="#D9D9D9"/>
<path d="M179.911 587.818L199.99 691.51L304.812 704.456L212.4 755.595L232.479 859.286L155.287 787.2L62.8749 838.339L107.579 742.649L30.386 670.563L135.207 683.509L179.911 587.818Z" fill="#D9D9D9"/>
<path d="M752.981 448.227L837.749 591.026L999.754 554.534L890.138 679.281L974.906 822.08L822.392 756.378L712.777 881.125L728.133 715.773L575.619 650.071L737.624 613.579L752.981 448.227Z" fill="#D9D9D9"/>
<path d="M1868.09 903.584L1896.71 1005.25L2002.24 1009.45L1914.39 1068.09L1943.01 1169.75L1860.1 1104.32L1772.25 1162.95L1808.86 1063.88L1725.95 998.451L1831.49 1002.65L1868.09 903.584Z" fill="#D9D9D9"/>
<path d="M1680.18 716.647L1799.92 870.65L1983.39 804.359L1873.92 965.828L1993.66 1119.83L1806.27 1065.62L1696.81 1227.09L1690.46 1032.12L1503.06 977.909L1686.53 911.619L1680.18 716.647Z" fill="#D9D9D9"/>
<path d="M1110.75 513.566L1108.4 708.627L1293.19 771.137L1106.95 829.182L1104.6 1024.24L991.848 865.055L805.608 923.1L922.161 766.672L809.406 607.484L994.195 669.994L1110.75 513.566Z" fill="#D9D9D9"/>
<path d="M911.472 516.819L909.84 652.439L1038.32 695.9L908.831 736.256L907.199 871.876L828.804 761.198L699.318 801.555L780.354 692.795L701.959 582.117L830.436 625.578L911.472 516.819Z" fill="#D9D9D9"/>
<path d="M619.095 513.527L535.38 689.726L677.086 823.793L483.641 798.623L399.926 974.823L364.085 783.068L170.64 757.898L341.935 664.557L306.095 472.802L447.801 606.868L619.095 513.527Z" fill="#D9D9D9"/>
<rect x="116" y="274" width="1920" height="448" fill="#D9D9D9"/>
<rect x="116" y="274" width="568" height="485" fill="#D9D9D9"/>
<rect x="1155" y="274" width="881" height="607" fill="#D9D9D9"/>
<rect x="1415" y="274" width="621" height="695" fill="#D9D9D9"/>
<rect x="1380" y="274" width="656" height="642" fill="#D9D9D9"/>
<rect x="1862" y="274" width="174" height="814" fill="#D9D9D9"/>
<rect x="1973" y="274" width="63" height="898" fill="#D9D9D9"/>
</mask>
<g mask="url(#mask0_132_90)">
<rect x="116" y="274" width="1920" height="1080" fill="white"/>
</g>
<path d="M601.444 829.868L597.303 894.397L657.394 918.277L594.743 934.279L590.601 998.808L556.022 944.168L493.371 960.17L534.651 910.399L500.073 855.759L560.164 879.639L601.444 829.868Z" fill="white"/>
<path d="M1428.37 1018.68L1447.88 1080.33L1512.54 1080.83L1459.93 1118.44L1479.44 1180.09L1427.42 1141.68L1374.82 1179.28L1395.27 1117.94L1343.25 1079.53L1407.91 1080.03L1428.37 1018.68Z" fill="white"/>
<path d="M865.712 950.899L892.384 990.904L938.674 977.9L908.869 1015.63L935.541 1055.63L890.448 1038.95L860.643 1076.68L862.579 1028.63L817.486 1011.95L863.776 998.941L865.712 950.899Z" fill="white"/>
<path d="M1294.88 1062.75L1291.55 1110.72L1336.15 1128.7L1289.5 1140.36L1286.18 1188.33L1260.67 1147.57L1214.03 1159.23L1244.91 1122.38L1219.4 1081.62L1263.99 1099.6L1294.88 1062.75Z" fill="white"/>
<path d="M1670.39 1135.04L1661.66 1261.1L1778.85 1308.36L1656.26 1339.01L1647.53 1465.07L1580.5 1357.96L1457.91 1388.61L1539.07 1291.75L1472.04 1184.64L1589.23 1231.9L1670.39 1135.04Z" fill="white"/>
<path d="M672.034 977.928L667.749 1039.81L725.275 1063L665.101 1078.05L660.815 1139.93L627.911 1087.35L567.736 1102.4L607.574 1054.85L574.67 1002.27L632.196 1025.47L672.034 977.928Z" fill="white"/>
<path d="M512.813 1095.87L531.596 1116.36L556.889 1104.83L543.205 1129.03L561.988 1149.52L534.748 1143.98L521.063 1168.18L517.912 1140.56L490.671 1135.02L515.964 1123.49L512.813 1095.87Z" fill="white"/>
<path d="M1058.53 1130.98L1056.12 1165.81L1088.5 1178.87L1054.63 1187.34L1052.21 1222.18L1033.69 1192.58L999.809 1201.05L1022.24 1174.28L1003.71 1144.68L1036.1 1157.74L1058.53 1130.98Z" fill="white"/>
<path d="M1880.53 1293.98L1878.12 1328.81L1910.5 1341.87L1876.63 1350.34L1874.21 1385.18L1855.69 1355.58L1821.81 1364.05L1844.24 1337.28L1825.71 1307.68L1858.1 1320.74L1880.53 1293.98Z" fill="white"/>
<path d="M1734.77 1397.57L1777.35 1433.22L1824.41 1403.74L1803.66 1455.25L1846.24 1490.9L1790.84 1487.08L1770.1 1538.59L1756.6 1484.73L1701.21 1480.92L1748.26 1451.44L1734.77 1397.57Z" fill="white"/>
<path d="M1181.57 1169.28L1202.36 1197.34L1235.47 1186.24L1215.21 1214.68L1236 1242.74L1202.69 1232.26L1182.43 1260.7L1182.1 1225.78L1148.79 1215.3L1181.9 1204.2L1181.57 1169.28Z" fill="white"/>
<path d="M1418.53 1330.98L1416.12 1365.81L1448.5 1378.87L1414.63 1387.34L1412.21 1422.18L1393.69 1392.58L1359.81 1401.05L1382.24 1374.28L1363.71 1344.68L1396.1 1357.74L1418.53 1330.98Z" fill="white"/>
<path d="M747.752 1125.04L761.039 1156.44L795.006 1153.5L769.252 1175.84L782.539 1207.24L753.334 1189.65L727.58 1211.99L735.285 1178.78L706.08 1161.19L740.047 1158.25L747.752 1125.04Z" fill="white"/>
<path d="M311.255 880.521L374.024 990.189L497.722 964.382L412.818 1057.97L475.587 1167.64L360.344 1115.81L275.439 1209.39L289.12 1083.78L173.877 1031.95L297.575 1006.14L311.255 880.521Z" fill="white"/>
<path d="M184.697 802.34L222.604 854.726L284.139 834.862L246.031 887.102L283.938 939.488L222.479 919.388L184.371 971.627L184.496 906.965L123.037 886.865L184.572 867.002L184.697 802.34Z" fill="white"/>
<rect x="116" width="1920" height="419" fill="white"/>
</svg>
